<svg width="1417" height="855" viewBox="0 0 1417 855" fill="none" xmlns="http://www.w3.org/2000/svg">
<mask id="path-1-inside-1_647_3770" fill="white">
<path fill-rule="evenodd" clip-rule="evenodd" d="M708.82 854.804C901.041 854.804 1064.92 725.823 1118.08 550.229C1148.28 545.083 1175.51 539.662 1199.83 534.255C1222.89 529.174 1243.32 524.11 1261.16 519.31C1269.98 516.936 1279.41 514.663 1289.1 512.328C1315.05 506.071 1342.87 499.364 1365.9 489.057C1395.44 476.084 1417.14 457.403 1416.81 426.541C1416.81 426.435 1416.81 426.328 1416.81 426.221C1416.81 424.176 1416.71 422.153 1416.51 420.156C1413.52 389.01 1387.94 364.132 1356.28 363.039C1355.61 362.903 1353.92 362.789 1351.32 362.615C1321.65 360.625 1173.67 350.703 1074.61 207.166L1074.61 207.221C999.482 83.3322 863.22 0.000488281 708.512 0.000488281C553.604 0.000488281 417.237 83.7689 342.345 208.194C243.597 348.94 91.475 360.719 59.8718 363.066C58.458 363.13 57.0566 363.241 55.6691 363.398C55.1246 363.45 54.7099 363.5 54.4302 363.551C25.6382 367.4 3.09744 391.04 0.306934 420.159C0.109419 422.154 0.0055865 424.177 0 426.221C0.0009802 426.328 0.00221084 426.434 0.00369137 426.541C-0.324851 457.403 21.3779 476.084 50.9096 489.057C73.9396 499.364 101.762 506.071 127.715 512.328C137.403 514.663 146.83 516.936 155.651 519.31C173.487 524.109 193.919 529.171 216.972 534.252C241.525 539.712 269.055 545.186 299.601 550.377C352.815 725.896 516.654 854.804 708.82 854.804ZM445.647 569.689C496.095 663.115 594.827 726.338 708.82 726.338C822.847 726.338 921.604 663.076 972.038 569.604C896.331 577.029 809.067 581.828 709.972 581.828C709.45 581.828 708.928 581.828 708.407 581.828C707.886 581.828 707.365 581.828 706.843 581.828C608.127 581.828 521.153 577.066 445.647 569.689ZM708.407 456.803C592.075 456.748 493.104 450.619 410.208 441.519C409.992 436.841 409.883 432.134 409.883 427.401C409.883 261.838 542.948 128.466 708.512 128.466C874.079 128.466 1007.76 261.838 1007.76 427.401C1007.76 432.103 1007.65 436.78 1007.44 441.428C924.371 450.578 825.128 456.748 708.407 456.803Z"/>
</mask>
<path fill-rule="evenodd" clip-rule="evenodd" d="M708.82 854.804C901.041 854.804 1064.92 725.823 1118.08 550.229C1148.28 545.083 1175.51 539.662 1199.83 534.255C1222.89 529.174 1243.32 524.11 1261.16 519.31C1269.98 516.936 1279.41 514.663 1289.1 512.328C1315.05 506.071 1342.87 499.364 1365.9 489.057C1395.44 476.084 1417.14 457.403 1416.81 426.541C1416.81 426.435 1416.81 426.328 1416.81 426.221C1416.81 424.176 1416.71 422.153 1416.51 420.156C1413.52 389.01 1387.94 364.132 1356.28 363.039C1355.61 362.903 1353.92 362.789 1351.32 362.615C1321.65 360.625 1173.67 350.703 1074.61 207.166L1074.61 207.221C999.482 83.3322 863.22 0.000488281 708.512 0.000488281C553.604 0.000488281 417.237 83.7689 342.345 208.194C243.597 348.94 91.475 360.719 59.8718 363.066C58.458 363.13 57.0566 363.241 55.6691 363.398C55.1246 363.45 54.7099 363.5 54.4302 363.551C25.6382 367.4 3.09744 391.04 0.306934 420.159C0.109419 422.154 0.0055865 424.177 0 426.221C0.0009802 426.328 0.00221084 426.434 0.00369137 426.541C-0.324851 457.403 21.3779 476.084 50.9096 489.057C73.9396 499.364 101.762 506.071 127.715 512.328C137.403 514.663 146.83 516.936 155.651 519.31C173.487 524.109 193.919 529.171 216.972 534.252C241.525 539.712 269.055 545.186 299.601 550.377C352.815 725.896 516.654 854.804 708.82 854.804ZM445.647 569.689C496.095 663.115 594.827 726.338 708.82 726.338C822.847 726.338 921.604 663.076 972.038 569.604C896.331 577.029 809.067 581.828 709.972 581.828C709.45 581.828 708.928 581.828 708.407 581.828C707.886 581.828 707.365 581.828 706.843 581.828C608.127 581.828 521.153 577.066 445.647 569.689ZM708.407 456.803C592.075 456.748 493.104 450.619 410.208 441.519C409.992 436.841 409.883 432.134 409.883 427.401C409.883 261.838 542.948 128.466 708.512 128.466C874.079 128.466 1007.76 261.838 1007.76 427.401C1007.76 432.103 1007.65 436.78 1007.44 441.428C924.371 450.578 825.128 456.748 708.407 456.803Z" fill="black"/>
<path d="M1118.08 550.229L1116.74 542.343L1111.86 543.174L1110.43 547.911L1118.08 550.229ZM1199.83 534.255L1198.11 526.443L1198.1 526.444L1198.09 526.446L1199.83 534.255ZM1261.16 519.31L1263.24 527.035L1263.24 527.035L1261.16 519.31ZM1289.1 512.328L1290.97 520.105L1290.97 520.105L1289.1 512.328ZM1365.9 489.057L1362.69 481.732L1362.66 481.744L1362.64 481.755L1365.9 489.057ZM1416.81 426.541L1408.81 426.431L1408.81 426.529L1408.81 426.626L1416.81 426.541ZM1416.81 426.221L1424.81 426.295L1424.81 426.247L1424.81 426.2L1416.81 426.221ZM1416.51 420.156L1408.54 420.92L1408.55 420.932L1408.55 420.945L1416.51 420.156ZM1356.28 363.039L1354.69 370.88L1355.34 371.012L1356 371.035L1356.28 363.039ZM1351.32 362.615L1351.86 354.633L1351.86 354.633L1351.32 362.615ZM1074.61 207.166L1081.19 202.621L1066.65 207.96L1074.61 207.166ZM1074.61 207.221L1067.77 211.369L1082.57 206.426L1074.61 207.221ZM342.345 208.194L348.894 212.789L349.055 212.559L349.199 212.32L342.345 208.194ZM59.8718 363.066L60.2323 371.058L60.3484 371.052L60.4643 371.044L59.8718 363.066ZM55.6691 363.398L56.4341 371.361L56.5017 371.355L56.5691 371.347L55.6691 363.398ZM54.4302 363.551L55.4901 371.48L55.6764 371.455L55.8613 371.422L54.4302 363.551ZM0.306934 420.159L8.26804 420.946L8.26927 420.934L8.27045 420.922L0.306934 420.159ZM0 426.221L-7.99997 426.2L-8.0001 426.247L-7.99966 426.295L0 426.221ZM0.00369137 426.541L8.00324 426.626L8.00428 426.527L8.00291 426.429L0.00369137 426.541ZM50.9096 489.057L54.1778 481.755L54.1525 481.743L54.1273 481.732L50.9096 489.057ZM127.715 512.328L125.84 520.105L125.84 520.105L127.715 512.328ZM155.651 519.31L153.572 527.035L153.572 527.035L155.651 519.31ZM216.972 534.252L218.709 526.443L218.702 526.441L218.694 526.439L216.972 534.252ZM299.601 550.377L307.257 548.056L305.821 543.32L300.941 542.49L299.601 550.377ZM445.647 569.689L446.425 561.727L431.467 560.266L438.608 573.49L445.647 569.689ZM972.038 569.604L979.079 573.403L986.216 560.175L971.258 561.642L972.038 569.604ZM708.407 581.828L708.411 573.828L708.403 573.828L708.407 581.828ZM708.407 456.803L708.403 464.803L708.411 464.803L708.407 456.803ZM410.208 441.519L402.217 441.887L402.532 448.724L409.335 449.471L410.208 441.519ZM1007.44 441.428L1008.31 449.38L1015.11 448.63L1015.43 441.794L1007.44 441.428ZM1110.43 547.911C1058.25 720.249 897.394 846.804 708.82 846.804V862.804C904.688 862.804 1071.59 731.398 1125.74 552.547L1110.43 547.911ZM1198.09 526.446C1173.91 531.824 1146.8 537.219 1116.74 542.343L1119.43 558.115C1149.75 552.947 1177.12 547.5 1201.56 542.064L1198.09 526.446ZM1259.08 511.584C1241.36 516.354 1221.04 521.388 1198.11 526.443L1201.55 542.068C1224.73 536.96 1245.29 531.867 1263.24 527.035L1259.08 511.584ZM1287.23 504.55C1277.56 506.88 1268.03 509.178 1259.08 511.584L1263.24 527.035C1271.94 524.693 1281.26 522.446 1290.97 520.105L1287.23 504.55ZM1362.64 481.755C1340.41 491.703 1313.36 498.251 1287.23 504.55L1290.97 520.105C1316.75 513.891 1345.34 507.026 1369.17 496.359L1362.64 481.755ZM1408.81 426.626C1409.09 452.528 1391.33 469.152 1362.69 481.732L1369.12 496.381C1399.55 483.016 1425.19 462.279 1424.81 426.456L1408.81 426.626ZM1408.81 426.148C1408.81 426.243 1408.81 426.337 1408.81 426.431L1424.81 426.651C1424.81 426.532 1424.81 426.414 1424.81 426.295L1408.81 426.148ZM1408.55 420.945C1408.72 422.687 1408.81 424.454 1408.81 426.243L1424.81 426.2C1424.81 423.898 1424.69 421.619 1424.47 419.368L1408.55 420.945ZM1356 371.035C1383.54 371.985 1405.93 393.662 1408.54 420.92L1424.47 419.393C1421.11 384.359 1392.34 356.279 1356.56 355.044L1356 371.035ZM1350.79 370.597C1352.1 370.686 1353.11 370.754 1353.88 370.815C1354.26 370.846 1354.52 370.871 1354.7 370.891C1354.93 370.916 1354.88 370.918 1354.69 370.88L1357.87 355.199C1356.51 354.924 1354.02 354.778 1351.86 354.633L1350.79 370.597ZM1068.02 211.71C1169.3 358.455 1320.65 368.576 1350.79 370.597L1351.86 354.633C1322.64 352.674 1178.04 342.95 1081.19 202.621L1068.02 211.71ZM1082.57 206.426L1082.57 206.371L1066.65 207.96L1066.65 208.015L1082.57 206.426ZM708.512 8.00049C860.284 8.00049 994.018 89.7498 1067.77 211.369L1081.45 203.072C1004.95 76.9146 866.156 -7.99951 708.512 -7.99951V8.00049ZM349.199 212.32C422.719 90.1732 556.554 8.00049 708.512 8.00049V-7.99951C550.655 -7.99951 411.754 77.3645 335.491 204.068L349.199 212.32ZM60.4643 371.044C92.4157 368.671 247.914 356.716 348.894 212.789L335.796 203.599C239.28 341.164 90.5342 352.766 59.2793 355.088L60.4643 371.044ZM56.5691 371.347C57.7776 371.21 58.9991 371.113 60.2323 371.058L59.5113 355.074C57.9169 355.146 56.3356 355.271 54.769 355.449L56.5691 371.347ZM55.8613 371.422C55.7906 371.435 55.7966 371.431 55.9233 371.416C56.0384 371.401 56.2044 371.383 56.4341 371.361L54.904 355.435C54.3373 355.489 53.6349 355.564 52.999 355.68L55.8613 371.422ZM8.27045 420.922C10.7115 395.45 30.4418 374.829 55.4901 371.48L53.3702 355.621C20.8345 359.971 -4.51659 386.63 -7.65658 419.395L8.27045 420.922ZM7.99997 426.243C8.00486 424.455 8.09565 422.688 8.26804 420.946L-7.65418 419.371C-7.87681 421.62 -7.99368 423.898 -7.99997 426.2L7.99997 426.243ZM8.00291 426.429C8.00161 426.335 8.00053 426.242 7.99966 426.148L-7.99966 426.295C-7.99856 426.414 -7.99719 426.533 -7.99553 426.652L8.00291 426.429ZM54.1273 481.732C25.489 469.152 7.7275 452.528 8.00324 426.626L-7.99586 426.455C-8.37721 462.279 17.2668 483.015 47.692 496.381L54.1273 481.732ZM129.589 504.55C103.459 498.251 76.4041 491.702 54.1778 481.755L47.6415 496.359C71.4752 507.026 100.065 513.891 125.84 520.105L129.589 504.55ZM157.73 511.584C148.789 509.178 139.255 506.88 129.589 504.55L125.84 520.105C135.55 522.446 144.872 524.693 153.572 527.035L157.73 511.584ZM218.694 526.439C195.761 521.385 175.448 516.353 157.73 511.584L153.572 527.035C171.525 531.866 192.077 536.957 215.251 542.064L218.694 526.439ZM300.941 542.49C270.528 537.322 243.13 531.874 218.709 526.443L215.236 542.061C239.919 547.55 267.581 553.05 298.261 558.264L300.941 542.49ZM708.82 846.804C520.3 846.804 359.484 720.32 307.257 548.056L291.945 552.698C346.146 731.472 513.008 862.804 708.82 862.804V846.804ZM708.82 718.338C597.867 718.338 501.786 656.816 452.687 565.888L438.608 573.49C490.404 669.413 591.787 734.338 708.82 734.338V718.338ZM964.998 565.805C915.912 656.778 819.806 718.338 708.82 718.338V734.338C825.887 734.338 927.297 669.374 979.079 573.403L964.998 565.805ZM709.972 589.828C809.326 589.828 896.85 585.016 972.819 577.566L971.258 561.642C895.811 569.041 808.809 573.828 709.972 573.828V589.828ZM708.403 589.828C708.926 589.828 709.449 589.828 709.972 589.828V573.828C709.451 573.828 708.931 573.828 708.411 573.828L708.403 589.828ZM708.403 573.828C707.883 573.828 707.363 573.828 706.843 573.828V589.828C707.366 589.828 707.888 589.828 708.411 589.828L708.403 573.828ZM706.843 573.828C608.385 573.828 521.671 569.078 446.425 561.727L444.87 577.651C520.636 585.053 607.869 589.828 706.843 589.828V573.828ZM708.411 448.803C592.358 448.748 493.677 442.634 411.081 433.567L409.335 449.471C492.531 458.604 591.792 464.748 708.403 464.803L708.411 448.803ZM418.2 441.151C417.99 436.595 417.883 432.011 417.883 427.401H401.883C401.883 432.257 401.995 437.086 402.217 441.887L418.2 441.151ZM417.883 427.401C417.883 266.246 547.377 136.466 708.512 136.466V120.466C538.519 120.466 401.883 257.43 401.883 427.401H417.883ZM708.512 136.466C869.671 136.466 999.757 266.267 999.757 427.401H1015.76C1015.76 257.409 878.487 120.466 708.512 120.466V136.466ZM999.757 427.401C999.757 431.981 999.652 436.536 999.445 441.062L1015.43 441.794C1015.65 437.024 1015.76 432.225 1015.76 427.401H999.757ZM708.411 464.803C825.412 464.748 924.947 458.563 1008.31 449.38L1006.56 433.476C923.796 442.593 824.844 448.748 708.403 448.803L708.411 464.803Z" fill="black" mask="url(#path-1-inside-1_647_3770)"/>
<path style="mix-blend-mode:overlay" fill-rule="evenodd" clip-rule="evenodd" d="M708.82 854.804C901.041 854.804 1064.92 725.823 1118.08 550.229C1148.28 545.083 1175.51 539.662 1199.83 534.255C1222.89 529.174 1243.32 524.11 1261.16 519.31C1269.98 516.936 1279.41 514.663 1289.1 512.328C1315.05 506.071 1342.87 499.364 1365.9 489.057C1395.44 476.084 1417.14 457.403 1416.81 426.541C1416.81 426.435 1416.81 426.328 1416.81 426.221C1416.81 424.176 1416.71 422.153 1416.51 420.156C1413.52 389.01 1387.94 364.132 1356.28 363.039C1355.61 362.903 1353.92 362.789 1351.32 362.615C1321.65 360.625 1173.67 350.703 1074.61 207.166L1074.61 207.221C999.482 83.3322 863.22 0.000488281 708.512 0.000488281C553.604 0.000488281 417.237 83.7689 342.345 208.194C243.597 348.94 91.475 360.719 59.8718 363.066C58.458 363.13 57.0566 363.241 55.6691 363.398C55.1246 363.45 54.7099 363.5 54.4302 363.551C25.6382 367.4 3.09744 391.04 0.306934 420.159C0.109419 422.154 0.0055865 424.177 0 426.221C0.0009802 426.328 0.00221084 426.434 0.00369137 426.541C-0.324851 457.403 21.3779 476.084 50.9096 489.057C73.9396 499.364 101.762 506.071 127.715 512.328C137.403 514.663 146.83 516.936 155.651 519.31C173.487 524.109 193.919 529.171 216.972 534.252C241.525 539.712 269.055 545.186 299.601 550.377C352.815 725.896 516.654 854.804 708.82 854.804ZM445.647 569.689C496.095 663.115 594.827 726.338 708.82 726.338C822.847 726.338 921.604 663.076 972.038 569.604C896.331 577.029 809.067 581.828 709.972 581.828C709.45 581.828 708.928 581.828 708.407 581.828C707.886 581.828 707.365 581.828 706.843 581.828C608.127 581.828 521.153 577.066 445.647 569.689ZM708.407 456.803C592.075 456.748 493.104 450.619 410.208 441.519C409.992 436.841 409.883 432.134 409.883 427.401C409.883 261.838 542.948 128.466 708.512 128.466C874.079 128.466 1007.76 261.838 1007.76 427.401C1007.76 432.103 1007.65 436.78 1007.44 441.428C924.371 450.578 825.128 456.748 708.407 456.803Z" fill="url(#paint0_linear_647_3770)" fill-opacity="0.3"/>
<g style="mix-blend-mode:overlay">
<path fill-rule="evenodd" clip-rule="evenodd" d="M708.82 854.804C901.041 854.804 1064.92 725.823 1118.08 550.229C1148.28 545.083 1175.51 539.662 1199.83 534.255C1222.89 529.174 1243.32 524.11 1261.16 519.31C1269.98 516.936 1279.41 514.663 1289.1 512.328C1315.05 506.071 1342.87 499.364 1365.9 489.057C1395.44 476.084 1417.14 457.403 1416.81 426.541C1416.81 426.435 1416.81 426.328 1416.81 426.221C1416.81 424.176 1416.71 422.153 1416.51 420.156C1413.52 389.01 1387.94 364.132 1356.28 363.039C1355.61 362.903 1353.92 362.789 1351.32 362.615C1321.65 360.625 1173.67 350.703 1074.61 207.166L1074.61 207.221C999.482 83.3322 863.22 0.000488281 708.512 0.000488281C553.604 0.000488281 417.237 83.7689 342.345 208.194C243.597 348.94 91.475 360.719 59.8718 363.066C58.458 363.13 57.0566 363.241 55.6691 363.398C55.1246 363.45 54.7099 363.5 54.4302 363.551C25.6382 367.4 3.09744 391.04 0.306934 420.159C0.109419 422.154 0.0055865 424.177 0 426.221C0.0009802 426.328 0.00221084 426.434 0.00369137 426.541C-0.324851 457.403 21.3779 476.084 50.9096 489.057C73.9396 499.364 101.762 506.071 127.715 512.328C137.403 514.663 146.83 516.936 155.651 519.31C173.487 524.109 193.919 529.171 216.972 534.252C241.525 539.712 269.055 545.186 299.601 550.377C352.815 725.896 516.654 854.804 708.82 854.804ZM445.647 569.689C496.095 663.115 594.827 726.338 708.82 726.338C822.847 726.338 921.604 663.076 972.038 569.604C896.331 577.029 809.067 581.828 709.972 581.828C709.45 581.828 708.928 581.828 708.407 581.828C707.886 581.828 707.365 581.828 706.843 581.828C608.127 581.828 521.153 577.066 445.647 569.689ZM708.407 456.803C592.075 456.748 493.104 450.619 410.208 441.519C409.992 436.841 409.883 432.134 409.883 427.401C409.883 261.838 542.948 128.466 708.512 128.466C874.079 128.466 1007.76 261.838 1007.76 427.401C1007.76 432.103 1007.65 436.78 1007.44 441.428C924.371 450.578 825.128 456.748 708.407 456.803Z" fill="url(#paint1_linear_647_3770)" fill-opacity="0.2"/>
</g>
<g style="mix-blend-mode:overlay">
<path fill-rule="evenodd" clip-rule="evenodd" d="M708.82 854.804C901.041 854.804 1064.92 725.823 1118.08 550.229C1148.28 545.083 1175.51 539.662 1199.83 534.255C1222.89 529.174 1243.32 524.11 1261.16 519.31C1269.98 516.936 1279.41 514.663 1289.1 512.328C1315.05 506.071 1342.88 499.364 1365.91 489.056C1395.44 476.083 1417.14 457.402 1416.81 426.541C1416.81 426.435 1416.81 426.328 1416.81 426.221C1416.81 424.175 1416.71 422.151 1416.51 420.154C1413.52 389.009 1387.94 364.132 1356.28 363.039C1355.61 362.903 1353.92 362.789 1351.32 362.615C1321.65 360.625 1173.67 350.703 1074.61 207.166L1074.61 207.221C999.482 83.3322 863.22 0.000488281 708.512 0.000488281C553.604 0.000488281 417.237 83.7689 342.345 208.194C243.597 348.94 91.4747 360.719 59.8717 363.066C58.6754 363.12 57.4881 363.208 56.3107 363.329C56.0967 363.351 55.8829 363.374 55.6695 363.398C55.1247 363.45 54.7097 363.5 54.4299 363.551C25.6378 367.4 3.09719 391.04 0.30689 420.159C0.109404 422.155 0.00558608 424.177 0 426.221C0.000980157 426.328 0.00221073 426.434 0.00369118 426.54C-0.0662286 433.108 0.861449 439.124 2.65001 444.651C9.26647 465.096 27.6633 478.845 50.9118 489.058C73.9414 499.365 101.763 506.071 127.715 512.328C137.403 514.663 146.83 516.936 155.651 519.31C173.487 524.109 193.919 529.171 216.972 534.252C241.525 539.712 269.055 545.186 299.601 550.377C352.815 725.896 516.654 854.804 708.82 854.804ZM445.647 569.689C496.095 663.115 594.827 726.338 708.82 726.338C822.847 726.338 921.604 663.076 972.038 569.604C896.331 577.029 809.067 581.828 709.972 581.828C709.45 581.828 708.928 581.828 708.407 581.828C707.886 581.828 707.365 581.828 706.843 581.828C608.127 581.828 521.153 577.066 445.647 569.689ZM708.407 456.803C592.075 456.748 493.104 450.619 410.208 441.519C409.992 436.841 409.883 432.134 409.883 427.401C409.883 261.838 542.948 128.466 708.512 128.466C874.079 128.466 1007.76 261.838 1007.76 427.401C1007.76 432.103 1007.65 436.78 1007.44 441.428C924.371 450.578 825.128 456.748 708.407 456.803Z" fill="url(#paint2_linear_647_3770)" fill-opacity="0.4"/>
</g>
<defs>
<linearGradient id="paint0_linear_647_3770" x1="708" y1="0.000488281" x2="708" y2="854" gradientUnits="userSpaceOnUse">
<stop stop-color="white"/>
<stop offset="0.0666667" stop-color="#FDFDFD"/>
<stop offset="0.133333" stop-color="#F6F6F6"/>
<stop offset="0.2" stop-color="#EAEAEA"/>
<stop offset="0.266667" stop-color="#D9D9D9"/>
<stop offset="0.333333" stop-color="#C4C4C4"/>
<stop offset="0.4" stop-color="#AAAAAA"/>
<stop offset="0.466667" stop-color="#8E8E8E"/>
<stop offset="0.533333" stop-color="#717171"/>
<stop offset="0.6" stop-color="#555555"/>
<stop offset="0.666667" stop-color="#3B3B3B"/>
<stop offset="0.733333" stop-color="#262626"/>
<stop offset="0.8" stop-color="#151515"/>
<stop offset="0.866667" stop-color="#090909"/>
<stop offset="0.933333" stop-color="#020202"/>
<stop offset="1"/>
</linearGradient>
<linearGradient id="paint1_linear_647_3770" x1="708.408" y1="0.000473092" x2="708" y2="854" gradientUnits="userSpaceOnUse">
<stop stop-color="white" stop-opacity="0"/>
<stop offset="0.0666667" stop-color="#FDFDFD" stop-opacity="0.01"/>
<stop offset="0.133333" stop-color="#F6F6F6" stop-opacity="0.05"/>
<stop offset="0.2" stop-color="#EAEAEA" stop-opacity="0.1"/>
<stop offset="0.266667" stop-color="#D9D9D9" stop-opacity="0.24"/>
<stop offset="0.333333" stop-color="#C4C4C4" stop-opacity="0.24"/>
<stop offset="0.4" stop-color="#AAAAAA" stop-opacity="0.44"/>
<stop offset="0.466667" stop-color="#8E8E8E" stop-opacity="0.55"/>
<stop offset="0.533333" stop-color="#717171" stop-opacity="0.56"/>
<stop offset="0.6" stop-color="#555555" stop-opacity="0.68"/>
<stop offset="0.666667" stop-color="#3B3B3B" stop-opacity="0.75"/>
<stop offset="0.733333" stop-color="#262626" stop-opacity="0.85"/>
<stop offset="0.8" stop-color="#151515" stop-opacity="0.92"/>
<stop offset="0.866667" stop-color="#090909" stop-opacity="0.95"/>
<stop offset="0.933333" stop-color="#020202" stop-opacity="0.99"/>
<stop offset="1"/>
</linearGradient>
<linearGradient id="paint2_linear_647_3770" x1="708.407" y1="0.000488281" x2="708.407" y2="854.804" gradientUnits="userSpaceOnUse">
<stop offset="0.53307" stop-opacity="0.17"/>
<stop offset="1"/>
</linearGradient>
</defs>
</svg>
