<svg width="1517" height="955" viewBox="0 0 1517 955" fill="none" xmlns="http://www.w3.org/2000/svg">
<path fill-rule="evenodd" clip-rule="evenodd" d="M758.82 904.804C951.041 904.804 1114.92 775.823 1168.08 600.229C1198.28 595.083 1225.51 589.662 1249.83 584.255C1272.89 579.174 1293.32 574.11 1311.16 569.31C1319.98 566.936 1329.41 564.663 1339.1 562.328C1365.05 556.071 1392.87 549.364 1415.9 539.057C1445.44 526.084 1467.14 507.403 1466.81 476.541C1466.81 476.435 1466.81 476.328 1466.81 476.221C1466.81 474.176 1466.71 472.153 1466.51 470.156C1463.52 439.01 1437.94 414.132 1406.28 413.039C1405.61 412.903 1403.92 412.789 1401.32 412.615C1371.65 410.625 1223.67 400.703 1124.61 257.166L1124.61 257.221C1049.48 133.332 913.22 50.0005 758.512 50.0005C603.604 50.0005 467.237 133.769 392.345 258.194C293.597 398.94 141.475 410.719 109.872 413.066C108.458 413.13 107.057 413.241 105.669 413.398C105.125 413.45 104.71 413.5 104.43 413.551C75.6382 417.4 53.0974 441.04 50.3069 470.159C50.1094 472.154 50.0056 474.177 50 476.221C50.001 476.328 50.0022 476.434 50.0037 476.541C49.6751 507.403 71.3779 526.084 100.91 539.057C123.94 549.364 151.762 556.071 177.715 562.328C187.403 564.663 196.83 566.936 205.651 569.31C223.487 574.109 243.919 579.171 266.972 584.252C291.525 589.712 319.055 595.186 349.601 600.377C402.815 775.896 566.654 904.804 758.82 904.804ZM495.647 619.689C546.095 713.115 644.827 776.338 758.82 776.338C872.847 776.338 971.604 713.076 1022.04 619.604C946.331 627.029 859.067 631.828 759.972 631.828C759.45 631.828 758.928 631.828 758.407 631.828C757.886 631.828 757.365 631.828 756.843 631.828C658.127 631.828 571.153 627.066 495.647 619.689ZM758.407 506.803C642.075 506.748 543.104 500.619 460.208 491.519C459.992 486.841 459.883 482.134 459.883 477.401C459.883 311.838 592.948 178.466 758.512 178.466C924.079 178.466 1057.76 311.838 1057.76 477.401C1057.76 482.103 1057.65 486.78 1057.44 491.428C974.371 500.578 875.128 506.748 758.407 506.803Z" fill="url(#paint0_linear_647_3729)"/>
<path fill-rule="evenodd" clip-rule="evenodd" d="M758.82 904.804C951.041 904.804 1114.92 775.823 1168.08 600.229C1198.28 595.083 1225.51 589.662 1249.83 584.255C1272.89 579.174 1293.32 574.11 1311.16 569.31C1319.98 566.936 1329.41 564.663 1339.1 562.328C1365.05 556.071 1392.87 549.364 1415.9 539.057C1445.44 526.084 1467.14 507.403 1466.81 476.541C1466.81 476.435 1466.81 476.328 1466.81 476.221C1466.81 474.176 1466.71 472.153 1466.51 470.156C1463.52 439.01 1437.94 414.132 1406.28 413.039C1405.61 412.903 1403.92 412.789 1401.32 412.615C1371.65 410.625 1223.67 400.703 1124.61 257.166L1124.61 257.221C1049.48 133.332 913.22 50.0005 758.512 50.0005C603.604 50.0005 467.237 133.769 392.345 258.194C293.597 398.94 141.475 410.719 109.872 413.066C108.458 413.13 107.057 413.241 105.669 413.398C105.125 413.45 104.71 413.5 104.43 413.551C75.6382 417.4 53.0974 441.04 50.3069 470.159C50.1094 472.154 50.0056 474.177 50 476.221C50.001 476.328 50.0022 476.434 50.0037 476.541C49.6751 507.403 71.3779 526.084 100.91 539.057C123.94 549.364 151.762 556.071 177.715 562.328C187.403 564.663 196.83 566.936 205.651 569.31C223.487 574.109 243.919 579.171 266.972 584.252C291.525 589.712 319.055 595.186 349.601 600.377C402.815 775.896 566.654 904.804 758.82 904.804ZM495.647 619.689C546.095 713.115 644.827 776.338 758.82 776.338C872.847 776.338 971.604 713.076 1022.04 619.604C946.331 627.029 859.067 631.828 759.972 631.828C759.45 631.828 758.928 631.828 758.407 631.828C757.886 631.828 757.365 631.828 756.843 631.828C658.127 631.828 571.153 627.066 495.647 619.689ZM758.407 506.803C642.075 506.748 543.104 500.619 460.208 491.519C459.992 486.841 459.883 482.134 459.883 477.401C459.883 311.838 592.948 178.466 758.512 178.466C924.079 178.466 1057.76 311.838 1057.76 477.401C1057.76 482.103 1057.65 486.78 1057.44 491.428C974.371 500.578 875.128 506.748 758.407 506.803Z" fill="url(#paint1_linear_647_3729)" fill-opacity="0.3" style="mix-blend-mode:overlay"/>
<g filter="url(#filter0_f_647_3729)">
<path d="M1168.08 600.229L1164.72 580.513L1152.53 582.592L1148.94 594.433L1168.08 600.229ZM1249.83 584.255L1245.52 564.724L1245.5 564.728L1245.49 564.732L1249.83 584.255ZM1311.16 569.31L1316.36 588.622L1316.36 588.622L1311.16 569.31ZM1339.1 562.328L1343.79 581.771L1343.79 581.771L1339.1 562.328ZM1415.9 539.057L1407.86 520.746L1407.8 520.774L1407.73 520.802L1415.9 539.057ZM1466.81 476.541L1446.81 476.266L1446.81 476.51L1446.81 476.754L1466.81 476.541ZM1466.81 476.221L1486.81 476.405L1486.81 476.286L1486.81 476.167L1466.81 476.221ZM1466.51 470.156L1446.6 472.065L1446.6 472.096L1446.6 472.128L1466.51 470.156ZM1406.28 413.039L1402.3 432.64L1403.93 432.97L1405.59 433.028L1406.28 413.039ZM1401.32 412.615L1402.66 392.66L1402.66 392.66L1401.32 412.615ZM1124.61 257.166L1141.07 245.805L1104.71 259.152L1124.61 257.166ZM1124.61 257.221L1107.51 267.591L1144.51 255.234L1124.61 257.221ZM392.345 258.194L408.717 269.681L409.12 269.108L409.481 268.508L392.345 258.194ZM109.872 413.066L110.773 433.046L111.063 433.032L111.353 433.011L109.872 413.066ZM105.669 413.398L107.582 433.306L107.751 433.29L107.919 433.271L105.669 413.398ZM104.43 413.551L107.08 433.375L107.546 433.312L108.008 433.228L104.43 413.551ZM50.3069 470.159L70.2097 472.128L70.2128 472.097L70.2157 472.066L50.3069 470.159ZM50 476.221L30.0001 476.167L29.9997 476.286L30.0008 476.406L50 476.221ZM50.0037 476.541L70.0026 476.753L70.0052 476.508L70.0017 476.262L50.0037 476.541ZM100.91 539.057L109.08 520.802L109.017 520.774L108.954 520.746L100.91 539.057ZM177.715 562.328L173.028 581.771L173.028 581.771L177.715 562.328ZM205.651 569.31L200.454 588.622L200.454 588.622L205.651 569.31ZM266.972 584.252L271.314 564.729L271.295 564.725L271.277 564.721L266.972 584.252ZM349.601 600.377L368.741 594.574L365.151 582.733L352.952 580.66L349.601 600.377ZM495.647 619.689L497.592 599.784L460.197 596.131L478.049 629.192L495.647 619.689ZM1022.04 619.604L1039.64 629.101L1057.48 596.032L1020.09 599.699L1022.04 619.604ZM758.407 631.828L758.416 611.828L758.407 611.828L758.398 611.828L758.407 631.828ZM758.407 506.803L758.398 526.803L758.407 526.803L758.416 526.803L758.407 506.803ZM460.208 491.519L440.229 492.44L441.017 509.532L458.026 511.399L460.208 491.519ZM1057.44 491.428L1059.63 511.307L1076.63 509.434L1077.42 492.342L1057.44 491.428ZM1148.94 594.433C1098.24 761.887 941.923 884.804 758.82 884.804V924.804C960.159 924.804 1131.59 789.759 1187.23 606.025L1148.94 594.433ZM1245.49 564.732C1221.5 570.067 1194.59 575.424 1164.72 580.513L1171.44 619.945C1201.97 614.743 1229.53 609.257 1254.17 603.778L1245.49 564.732ZM1305.97 549.997C1288.42 554.718 1268.28 559.709 1245.52 564.724L1254.13 603.787C1277.49 598.638 1298.23 593.502 1316.36 588.622L1305.97 549.997ZM1334.41 542.885C1324.78 545.207 1315.09 547.542 1305.97 549.997L1316.36 588.622C1324.88 586.33 1334.04 584.12 1343.79 581.771L1334.41 542.885ZM1407.73 520.802C1386.71 530.21 1360.81 536.521 1334.41 542.885L1343.79 581.771C1369.3 575.621 1399.04 568.519 1424.07 557.312L1407.73 520.802ZM1446.81 476.754C1447.01 495.215 1435.16 508.754 1407.86 520.746L1423.95 557.368C1455.71 543.414 1487.27 519.592 1486.81 476.328L1446.81 476.754ZM1446.82 476.038C1446.81 476.114 1446.81 476.19 1446.81 476.266L1486.81 476.816C1486.81 476.679 1486.81 476.542 1486.81 476.405L1446.82 476.038ZM1446.6 472.128C1446.74 473.488 1446.81 474.871 1446.81 476.276L1486.81 476.167C1486.81 473.48 1486.67 470.818 1486.41 468.185L1446.6 472.128ZM1405.59 433.028C1426.94 433.764 1444.54 450.639 1446.6 472.065L1486.42 468.248C1482.5 427.381 1448.94 394.5 1406.97 393.051L1405.59 433.028ZM1399.98 432.571C1401.33 432.661 1402.25 432.723 1402.91 432.776C1403.06 432.789 1403.18 432.799 1403.26 432.807C1403.35 432.815 1403.39 432.819 1403.38 432.818C1403.38 432.818 1403.36 432.816 1403.32 432.811C1403.29 432.807 1403.23 432.799 1403.15 432.789C1403.03 432.77 1402.72 432.725 1402.3 432.64L1410.26 393.439C1407.88 392.956 1404.17 392.762 1402.66 392.66L1399.98 432.571ZM1108.15 268.526C1212.75 420.085 1369.15 430.503 1399.98 432.571L1402.66 392.66C1374.14 390.748 1234.59 381.32 1141.07 245.805L1108.15 268.526ZM1144.51 255.234L1144.51 255.179L1104.71 259.152L1104.71 259.207L1144.51 255.234ZM758.512 70.0005C905.879 70.0005 1035.82 149.376 1107.51 267.591L1141.71 246.85C1063.14 117.288 920.561 30.0005 758.512 30.0005V70.0005ZM409.481 268.508C480.943 149.78 610.978 70.0005 758.512 70.0005V30.0005C596.23 30.0005 453.53 117.758 375.21 247.88L409.481 268.508ZM111.353 433.011C143.827 430.599 304.389 418.38 408.717 269.681L375.973 246.707C282.805 379.5 139.123 390.838 108.39 393.121L111.353 433.011ZM107.919 433.271C108.859 433.165 109.811 433.089 110.773 433.046L108.97 393.086C107.105 393.17 105.254 393.317 103.419 393.525L107.919 433.271ZM108.008 433.228C107.796 433.267 107.636 433.291 107.548 433.304C107.456 433.317 107.398 433.325 107.383 433.326C107.36 433.329 107.416 433.322 107.582 433.306L103.756 393.49C103.156 393.547 102.022 393.661 100.852 393.873L108.008 433.228ZM70.2157 472.066C72.1325 452.065 87.6472 435.972 107.08 433.375L101.78 393.727C63.6291 398.827 34.0624 430.015 30.3981 468.251L70.2157 472.066ZM69.9999 476.276C70.0038 474.873 70.075 473.49 70.2097 472.128L30.4042 468.189C30.1439 470.819 30.0074 473.481 30.0001 476.167L69.9999 476.276ZM70.0017 476.262C70.0007 476.187 69.9998 476.112 69.9992 476.037L30.0008 476.406C30.0021 476.544 30.0037 476.681 30.0056 476.819L70.0017 476.262ZM108.954 520.746C81.6555 508.754 69.806 495.214 70.0026 476.753L30.0048 476.328C29.5443 519.592 61.1002 543.413 92.8656 557.368L108.954 520.746ZM182.402 542.885C156.005 536.521 130.101 530.21 109.08 520.802L92.7394 557.312C117.779 568.518 147.519 575.621 173.028 581.771L182.402 542.885ZM210.848 549.997C201.727 547.542 192.034 545.207 182.402 542.885L173.028 581.771C182.771 584.12 191.934 586.33 200.454 588.622L210.848 549.997ZM271.277 564.721C248.525 559.706 228.39 554.717 210.848 549.997L200.454 588.622C218.583 593.501 239.314 598.636 262.668 603.783L271.277 564.721ZM352.952 580.66C322.739 575.525 295.539 570.116 271.314 564.729L262.631 603.775C287.511 609.308 315.371 614.847 346.25 620.095L352.952 580.66ZM758.82 884.804C575.769 884.804 419.488 761.957 368.741 594.574L330.461 606.18C386.142 789.835 557.539 924.804 758.82 924.804V884.804ZM758.82 756.338C652.426 756.338 560.322 697.368 513.246 610.187L478.049 629.192C531.868 728.861 637.228 796.338 758.82 796.338V756.338ZM1004.44 610.107C957.374 697.332 865.245 756.338 758.82 756.338V796.338C880.448 796.338 985.835 728.82 1039.64 629.101L1004.44 610.107ZM759.972 651.828C859.714 651.828 947.629 646.997 1023.99 639.509L1020.09 599.699C945.032 607.06 858.421 611.828 759.972 611.828V651.828ZM758.398 651.828C758.922 651.828 759.447 651.828 759.972 651.828V611.828C759.453 611.828 758.935 611.828 758.416 611.828L758.398 651.828ZM758.398 611.828C757.879 611.828 757.361 611.828 756.843 611.828V651.828C757.368 651.828 757.892 651.828 758.416 651.828L758.398 611.828ZM756.843 611.828C658.771 611.828 572.447 607.097 497.592 599.784L493.703 639.595C569.86 647.034 657.483 651.828 756.843 651.828V611.828ZM758.416 486.803C642.782 486.749 544.537 480.656 462.391 471.638L458.026 511.399C541.671 520.582 641.367 526.748 758.398 526.803L758.416 486.803ZM480.187 490.598C479.985 486.227 479.883 481.827 479.883 477.401H439.883C439.883 482.441 440 487.455 440.229 492.44L480.187 490.598ZM479.883 477.401C479.883 322.857 604.021 198.466 758.512 198.466V158.466C581.876 158.466 439.883 300.819 439.883 477.401H479.883ZM758.512 198.466C913.06 198.466 1037.76 322.91 1037.76 477.401H1077.76C1077.76 300.765 935.098 158.466 758.512 158.466V198.466ZM1037.76 477.401C1037.76 481.798 1037.66 486.169 1037.46 490.513L1077.42 492.342C1077.64 487.39 1077.76 482.409 1077.76 477.401H1037.76ZM758.416 526.803C875.837 526.748 975.809 520.541 1059.63 511.307L1055.25 471.548C972.933 480.616 874.418 486.748 758.398 486.803L758.416 526.803Z" fill="white" fill-opacity="0.1"/>
<path d="M1168.08 600.229L1164.72 580.513L1152.53 582.592L1148.94 594.433L1168.08 600.229ZM1249.83 584.255L1245.52 564.724L1245.5 564.728L1245.49 564.732L1249.83 584.255ZM1311.16 569.31L1316.36 588.622L1316.36 588.622L1311.16 569.31ZM1339.1 562.328L1343.79 581.771L1343.79 581.771L1339.1 562.328ZM1415.9 539.057L1407.86 520.746L1407.8 520.774L1407.73 520.802L1415.9 539.057ZM1466.81 476.541L1446.81 476.266L1446.81 476.51L1446.81 476.754L1466.81 476.541ZM1466.81 476.221L1486.81 476.405L1486.81 476.286L1486.81 476.167L1466.81 476.221ZM1466.51 470.156L1446.6 472.065L1446.6 472.096L1446.6 472.128L1466.51 470.156ZM1406.28 413.039L1402.3 432.64L1403.93 432.97L1405.59 433.028L1406.28 413.039ZM1401.32 412.615L1402.66 392.66L1402.66 392.66L1401.32 412.615ZM1124.61 257.166L1141.07 245.805L1104.71 259.152L1124.61 257.166ZM1124.61 257.221L1107.51 267.591L1144.51 255.234L1124.61 257.221ZM392.345 258.194L408.717 269.681L409.12 269.108L409.481 268.508L392.345 258.194ZM109.872 413.066L110.773 433.046L111.063 433.032L111.353 433.011L109.872 413.066ZM105.669 413.398L107.582 433.306L107.751 433.29L107.919 433.271L105.669 413.398ZM104.43 413.551L107.08 433.375L107.546 433.312L108.008 433.228L104.43 413.551ZM50.3069 470.159L70.2097 472.128L70.2128 472.097L70.2157 472.066L50.3069 470.159ZM50 476.221L30.0001 476.167L29.9997 476.286L30.0008 476.406L50 476.221ZM50.0037 476.541L70.0026 476.753L70.0052 476.508L70.0017 476.262L50.0037 476.541ZM100.91 539.057L109.08 520.802L109.017 520.774L108.954 520.746L100.91 539.057ZM177.715 562.328L173.028 581.771L173.028 581.771L177.715 562.328ZM205.651 569.31L200.454 588.622L200.454 588.622L205.651 569.31ZM266.972 584.252L271.314 564.729L271.295 564.725L271.277 564.721L266.972 584.252ZM349.601 600.377L368.741 594.574L365.151 582.733L352.952 580.66L349.601 600.377ZM495.647 619.689L497.592 599.784L460.197 596.131L478.049 629.192L495.647 619.689ZM1022.04 619.604L1039.64 629.101L1057.48 596.032L1020.09 599.699L1022.04 619.604ZM758.407 631.828L758.416 611.828L758.407 611.828L758.398 611.828L758.407 631.828ZM758.407 506.803L758.398 526.803L758.407 526.803L758.416 526.803L758.407 506.803ZM460.208 491.519L440.229 492.44L441.017 509.532L458.026 511.399L460.208 491.519ZM1057.44 491.428L1059.63 511.307L1076.63 509.434L1077.42 492.342L1057.44 491.428ZM1148.94 594.433C1098.24 761.887 941.923 884.804 758.82 884.804V924.804C960.159 924.804 1131.59 789.759 1187.23 606.025L1148.94 594.433ZM1245.49 564.732C1221.5 570.067 1194.59 575.424 1164.72 580.513L1171.44 619.945C1201.97 614.743 1229.53 609.257 1254.17 603.778L1245.49 564.732ZM1305.97 549.997C1288.42 554.718 1268.28 559.709 1245.52 564.724L1254.13 603.787C1277.49 598.638 1298.23 593.502 1316.36 588.622L1305.97 549.997ZM1334.41 542.885C1324.78 545.207 1315.09 547.542 1305.97 549.997L1316.36 588.622C1324.88 586.33 1334.04 584.12 1343.79 581.771L1334.41 542.885ZM1407.73 520.802C1386.71 530.21 1360.81 536.521 1334.41 542.885L1343.79 581.771C1369.3 575.621 1399.04 568.519 1424.07 557.312L1407.73 520.802ZM1446.81 476.754C1447.01 495.215 1435.16 508.754 1407.86 520.746L1423.95 557.368C1455.71 543.414 1487.27 519.592 1486.81 476.328L1446.81 476.754ZM1446.82 476.038C1446.81 476.114 1446.81 476.19 1446.81 476.266L1486.81 476.816C1486.81 476.679 1486.81 476.542 1486.81 476.405L1446.82 476.038ZM1446.6 472.128C1446.74 473.488 1446.81 474.871 1446.81 476.276L1486.81 476.167C1486.81 473.48 1486.67 470.818 1486.41 468.185L1446.6 472.128ZM1405.59 433.028C1426.94 433.764 1444.54 450.639 1446.6 472.065L1486.42 468.248C1482.5 427.381 1448.94 394.5 1406.97 393.051L1405.59 433.028ZM1399.98 432.571C1401.33 432.661 1402.25 432.723 1402.91 432.776C1403.06 432.789 1403.18 432.799 1403.26 432.807C1403.35 432.815 1403.39 432.819 1403.38 432.818C1403.38 432.818 1403.36 432.816 1403.32 432.811C1403.29 432.807 1403.23 432.799 1403.15 432.789C1403.03 432.77 1402.72 432.725 1402.3 432.64L1410.26 393.439C1407.88 392.956 1404.17 392.762 1402.66 392.66L1399.98 432.571ZM1108.15 268.526C1212.75 420.085 1369.15 430.503 1399.98 432.571L1402.66 392.66C1374.14 390.748 1234.59 381.32 1141.07 245.805L1108.15 268.526ZM1144.51 255.234L1144.51 255.179L1104.71 259.152L1104.71 259.207L1144.51 255.234ZM758.512 70.0005C905.879 70.0005 1035.82 149.376 1107.51 267.591L1141.71 246.85C1063.14 117.288 920.561 30.0005 758.512 30.0005V70.0005ZM409.481 268.508C480.943 149.78 610.978 70.0005 758.512 70.0005V30.0005C596.23 30.0005 453.53 117.758 375.21 247.88L409.481 268.508ZM111.353 433.011C143.827 430.599 304.389 418.38 408.717 269.681L375.973 246.707C282.805 379.5 139.123 390.838 108.39 393.121L111.353 433.011ZM107.919 433.271C108.859 433.165 109.811 433.089 110.773 433.046L108.97 393.086C107.105 393.17 105.254 393.317 103.419 393.525L107.919 433.271ZM108.008 433.228C107.796 433.267 107.636 433.291 107.548 433.304C107.456 433.317 107.398 433.325 107.383 433.326C107.36 433.329 107.416 433.322 107.582 433.306L103.756 393.49C103.156 393.547 102.022 393.661 100.852 393.873L108.008 433.228ZM70.2157 472.066C72.1325 452.065 87.6472 435.972 107.08 433.375L101.78 393.727C63.6291 398.827 34.0624 430.015 30.3981 468.251L70.2157 472.066ZM69.9999 476.276C70.0038 474.873 70.075 473.49 70.2097 472.128L30.4042 468.189C30.1439 470.819 30.0074 473.481 30.0001 476.167L69.9999 476.276ZM70.0017 476.262C70.0007 476.187 69.9998 476.112 69.9992 476.037L30.0008 476.406C30.0021 476.544 30.0037 476.681 30.0056 476.819L70.0017 476.262ZM108.954 520.746C81.6555 508.754 69.806 495.214 70.0026 476.753L30.0048 476.328C29.5443 519.592 61.1002 543.413 92.8656 557.368L108.954 520.746ZM182.402 542.885C156.005 536.521 130.101 530.21 109.08 520.802L92.7394 557.312C117.779 568.518 147.519 575.621 173.028 581.771L182.402 542.885ZM210.848 549.997C201.727 547.542 192.034 545.207 182.402 542.885L173.028 581.771C182.771 584.12 191.934 586.33 200.454 588.622L210.848 549.997ZM271.277 564.721C248.525 559.706 228.39 554.717 210.848 549.997L200.454 588.622C218.583 593.501 239.314 598.636 262.668 603.783L271.277 564.721ZM352.952 580.66C322.739 575.525 295.539 570.116 271.314 564.729L262.631 603.775C287.511 609.308 315.371 614.847 346.25 620.095L352.952 580.66ZM758.82 884.804C575.769 884.804 419.488 761.957 368.741 594.574L330.461 606.18C386.142 789.835 557.539 924.804 758.82 924.804V884.804ZM758.82 756.338C652.426 756.338 560.322 697.368 513.246 610.187L478.049 629.192C531.868 728.861 637.228 796.338 758.82 796.338V756.338ZM1004.44 610.107C957.374 697.332 865.245 756.338 758.82 756.338V796.338C880.448 796.338 985.835 728.82 1039.64 629.101L1004.44 610.107ZM759.972 651.828C859.714 651.828 947.629 646.997 1023.99 639.509L1020.09 599.699C945.032 607.06 858.421 611.828 759.972 611.828V651.828ZM758.398 651.828C758.922 651.828 759.447 651.828 759.972 651.828V611.828C759.453 611.828 758.935 611.828 758.416 611.828L758.398 651.828ZM758.398 611.828C757.879 611.828 757.361 611.828 756.843 611.828V651.828C757.368 651.828 757.892 651.828 758.416 651.828L758.398 611.828ZM756.843 611.828C658.771 611.828 572.447 607.097 497.592 599.784L493.703 639.595C569.86 647.034 657.483 651.828 756.843 651.828V611.828ZM758.416 486.803C642.782 486.749 544.537 480.656 462.391 471.638L458.026 511.399C541.671 520.582 641.367 526.748 758.398 526.803L758.416 486.803ZM480.187 490.598C479.985 486.227 479.883 481.827 479.883 477.401H439.883C439.883 482.441 440 487.455 440.229 492.44L480.187 490.598ZM479.883 477.401C479.883 322.857 604.021 198.466 758.512 198.466V158.466C581.876 158.466 439.883 300.819 439.883 477.401H479.883ZM758.512 198.466C913.06 198.466 1037.76 322.91 1037.76 477.401H1077.76C1077.76 300.765 935.098 158.466 758.512 158.466V198.466ZM1037.76 477.401C1037.76 481.798 1037.66 486.169 1037.46 490.513L1077.42 492.342C1077.64 487.39 1077.76 482.409 1077.76 477.401H1037.76ZM758.416 526.803C875.837 526.748 975.809 520.541 1059.63 511.307L1055.25 471.548C972.933 480.616 874.418 486.748 758.398 486.803L758.416 526.803Z" fill="url(#paint2_radial_647_3729)" fill-opacity="0.2"/>
</g>
<path fill-rule="evenodd" clip-rule="evenodd" d="M758.82 904.804C951.041 904.804 1114.92 775.823 1168.08 600.229C1198.28 595.083 1225.51 589.662 1249.83 584.255C1272.89 579.174 1293.32 574.11 1311.16 569.31C1319.98 566.936 1329.41 564.663 1339.1 562.328C1365.05 556.071 1392.87 549.364 1415.9 539.057C1445.44 526.084 1467.14 507.403 1466.81 476.541C1466.81 476.435 1466.81 476.328 1466.81 476.221C1466.81 474.176 1466.71 472.153 1466.51 470.156C1463.52 439.01 1437.94 414.132 1406.28 413.039C1405.61 412.903 1403.92 412.789 1401.32 412.615C1371.65 410.625 1223.67 400.703 1124.61 257.166L1124.61 257.221C1049.48 133.332 913.22 50.0005 758.512 50.0005C603.604 50.0005 467.237 133.769 392.345 258.194C293.597 398.94 141.475 410.719 109.872 413.066C108.458 413.13 107.057 413.241 105.669 413.398C105.125 413.45 104.71 413.5 104.43 413.551C75.6382 417.4 53.0974 441.04 50.3069 470.159C50.1094 472.154 50.0056 474.177 50 476.221C50.001 476.328 50.0022 476.434 50.0037 476.541C49.6751 507.403 71.3779 526.084 100.91 539.057C123.94 549.364 151.762 556.071 177.715 562.328C187.403 564.663 196.83 566.936 205.651 569.31C223.487 574.109 243.919 579.171 266.972 584.252C291.525 589.712 319.055 595.186 349.601 600.377C402.815 775.896 566.654 904.804 758.82 904.804ZM495.647 619.689C546.095 713.115 644.827 776.338 758.82 776.338C872.847 776.338 971.604 713.076 1022.04 619.604C946.331 627.029 859.067 631.828 759.972 631.828C759.45 631.828 758.928 631.828 758.407 631.828C757.886 631.828 757.365 631.828 756.843 631.828C658.127 631.828 571.153 627.066 495.647 619.689ZM758.407 506.803C642.075 506.748 543.104 500.619 460.208 491.519C459.992 486.841 459.883 482.134 459.883 477.401C459.883 311.838 592.948 178.466 758.512 178.466C924.079 178.466 1057.76 311.838 1057.76 477.401C1057.76 482.103 1057.65 486.78 1057.44 491.428C974.371 500.578 875.128 506.748 758.407 506.803Z" fill="url(#paint3_linear_647_3729)" fill-opacity="0.2"/>
<path fill-rule="evenodd" clip-rule="evenodd" d="M758.82 904.804C951.041 904.804 1114.92 775.823 1168.08 600.229C1198.28 595.083 1225.51 589.662 1249.83 584.255C1272.89 579.174 1293.32 574.11 1311.16 569.31C1319.98 566.936 1329.41 564.663 1339.1 562.328C1365.05 556.071 1392.87 549.364 1415.9 539.057C1445.44 526.084 1467.14 507.403 1466.81 476.541C1466.81 476.435 1466.81 476.328 1466.81 476.221C1466.81 474.176 1466.71 472.153 1466.51 470.156C1463.52 439.01 1437.94 414.132 1406.28 413.039C1405.61 412.903 1403.92 412.789 1401.32 412.615C1371.65 410.625 1223.67 400.703 1124.61 257.166L1124.61 257.221C1049.48 133.332 913.22 50.0005 758.512 50.0005C603.604 50.0005 467.237 133.769 392.345 258.194C293.597 398.94 141.475 410.719 109.872 413.066C108.458 413.13 107.057 413.241 105.669 413.398C105.125 413.45 104.71 413.5 104.43 413.551C75.6382 417.4 53.0974 441.04 50.3069 470.159C50.1094 472.154 50.0056 474.177 50 476.221C50.001 476.328 50.0022 476.434 50.0037 476.541C49.6751 507.403 71.3779 526.084 100.91 539.057C123.94 549.364 151.762 556.071 177.715 562.328C187.403 564.663 196.83 566.936 205.651 569.31C223.487 574.109 243.919 579.171 266.972 584.252C291.525 589.712 319.055 595.186 349.601 600.377C402.815 775.896 566.654 904.804 758.82 904.804ZM495.647 619.689C546.095 713.115 644.827 776.338 758.82 776.338C872.847 776.338 971.604 713.076 1022.04 619.604C946.331 627.029 859.067 631.828 759.972 631.828C759.45 631.828 758.928 631.828 758.407 631.828C757.886 631.828 757.365 631.828 756.843 631.828C658.127 631.828 571.153 627.066 495.647 619.689ZM758.407 506.803C642.075 506.748 543.104 500.619 460.208 491.519C459.992 486.841 459.883 482.134 459.883 477.401C459.883 311.838 592.948 178.466 758.512 178.466C924.079 178.466 1057.76 311.838 1057.76 477.401C1057.76 482.103 1057.65 486.78 1057.44 491.428C974.371 500.578 875.128 506.748 758.407 506.803Z" fill="url(#paint4_linear_647_3729)" fill-opacity="0.4"/>
<defs>
<filter id="filter0_f_647_3729" x="-0.000244141" y="0.000488281" width="1516.82" height="954.803" filterUnits="userSpaceOnUse" color-interpolation-filters="sRGB">
<feFlood flood-opacity="0" result="BackgroundImageFix"/>
<feBlend mode="normal" in="SourceGraphic" in2="BackgroundImageFix" result="shape"/>
<feGaussianBlur stdDeviation="15" result="effect1_foregroundBlur_647_3729"/>
</filter>
<linearGradient id="paint0_linear_647_3729" x1="758" y1="50.0005" x2="767.495" y2="903.895" gradientUnits="userSpaceOnUse">
<stop stop-color="white" stop-opacity="0.85"/>
<stop offset="1" stop-color="white" stop-opacity="0.75"/>
</linearGradient>
<linearGradient id="paint1_linear_647_3729" x1="758" y1="50.0005" x2="758" y2="904" gradientUnits="userSpaceOnUse">
<stop stop-color="white"/>
<stop offset="0.0666667" stop-color="#FDFDFD"/>
<stop offset="0.133333" stop-color="#F6F6F6"/>
<stop offset="0.2" stop-color="#EAEAEA"/>
<stop offset="0.266667" stop-color="#D9D9D9"/>
<stop offset="0.333333" stop-color="#C4C4C4"/>
<stop offset="0.4" stop-color="#AAAAAA"/>
<stop offset="0.466667" stop-color="#8E8E8E"/>
<stop offset="0.533333" stop-color="#717171"/>
<stop offset="0.6" stop-color="#555555"/>
<stop offset="0.666667" stop-color="#3B3B3B"/>
<stop offset="0.733333" stop-color="#262626"/>
<stop offset="0.8" stop-color="#151515"/>
<stop offset="0.866667" stop-color="#090909"/>
<stop offset="0.933333" stop-color="#020202"/>
<stop offset="1"/>
</linearGradient>
<radialGradient id="paint2_radial_647_3729" cx="0" cy="0" r="1" gradientUnits="userSpaceOnUse" gradientTransform="translate(758.407 477.402) rotate(90.0598) scale(390.402 647.081)">
<stop stop-color="white"/>
<stop offset="1" stop-color="white" stop-opacity="0"/>
</radialGradient>
<linearGradient id="paint3_linear_647_3729" x1="758.408" y1="50.0005" x2="758" y2="904" gradientUnits="userSpaceOnUse">
<stop stop-color="white"/>
<stop offset="0.0666667" stop-color="#FDFDFD" stop-opacity="0.991353"/>
<stop offset="0.133333" stop-color="#F6F6F6" stop-opacity="0.96449"/>
<stop offset="0.2" stop-color="#EAEAEA" stop-opacity="0.91834"/>
<stop offset="0.266667" stop-color="#D9D9D9" stop-opacity="0.852589"/>
<stop offset="0.333333" stop-color="#C4C4C4" stop-opacity="0.768225"/>
<stop offset="0.4" stop-color="#AAAAAA" stop-opacity="0.668116"/>
<stop offset="0.466667" stop-color="#8E8E8E" stop-opacity="0.557309"/>
<stop offset="0.533333" stop-color="#717171" stop-opacity="0.442691"/>
<stop offset="0.6" stop-color="#555555" stop-opacity="0.331884"/>
<stop offset="0.666667" stop-color="#3B3B3B" stop-opacity="0.231775"/>
<stop offset="0.733333" stop-color="#262626" stop-opacity="0.147411"/>
<stop offset="0.8" stop-color="#151515" stop-opacity="0.0816599"/>
<stop offset="0.866667" stop-color="#090909" stop-opacity="0.03551"/>
<stop offset="0.933333" stop-color="#020202" stop-opacity="0.01"/>
<stop offset="1" stop-opacity="0"/>
</linearGradient>
<linearGradient id="paint4_linear_647_3729" x1="758.407" y1="50.0005" x2="758.407" y2="904.804" gradientUnits="userSpaceOnUse">
<stop offset="0.53307" stop-color="white" stop-opacity="0.17"/>
<stop offset="1" stop-color="white"/>
</linearGradient>
</defs>
</svg>
